# xmcd
#
# Track frame offsets:
#	150
#	1607
#	14582
#	53815
#	58197
#	71002
#	110160
#	120850
#	150470
#	152720
#	165832
#
# Disc length: 2968 seconds
#
# Revision: 1
# Processed by: cddbd v1.5.2PL0 Copyright (c) Steve Scherf et al.
# Submitted via: audiograbber 1.83.01
#
DISCID=7d0b960b
DTITLE=Hamilton Carneiro and Geraldinho - Geraldinho Trova, Prosa and Viola
DYEAR=2005
DGENRE=Country
TTITLE0=Introducao a Folia do Divino
TTITLE1=Folia do Divino
TTITLE2=A Namoradinha
TTITLE3=Mariinha
TTITLE4=Mariiniha II
TTITLE5=O Osso
TTITLE6=Dez Maria
TTITLE7=O Causo do Marimbondo
TTITLE8=Mãe
TTITLE9=Invencionice
TTITLE10=O Causo da Bicicleta
EXTD=
EXTT0=
EXTT1=
EXTT2=
EXTT3=
EXTT4=
EXTT5=
EXTT6=
EXTT7=
EXTT8=
EXTT9=
EXTT10=
PLAYORDER=
